<!DOCTYPE svg PUBLIC "-//W3C//DTD SVG 1.1//EN" "http://www.w3.org/Graphics/SVG/1.1/DTD/svg11.dtd">
<!-- Uploaded to: SVG Repo, www.svgrepo.com, Transformed by: SVG Repo Mixer Tools -->
<svg width="800px" height="800px" viewBox="0 0 24 24" xmlns="http://www.w3.org/2000/svg" mirror-in-rtl="true" fill="#000000">
<g id="SVGRepo_bgCarrier" stroke-width="0"/>
<g id="SVGRepo_tracerCarrier" stroke-linecap="round" stroke-linejoin="round"/>
<g id="SVGRepo_iconCarrier"> <circle fill="#000000" cx="2" cy="2" r="2"/> <circle fill="#000000" cx="2" cy="8" r="2"/> <circle fill="#000000" cx="2" cy="20" r="2"/> <circle fill="#000000" cx="2" cy="14" r="2"/> <path fill="#000000" d="M23.002 3H7.998C7.448 3 7 2.55 7 2.002v-.004c0-.55.45-.998.998-.998H23c.55 0 1 .45 1 .998V2c0 .55-.45 1-.998 1zM23.002 9H7.998C7.448 9 7 8.55 7 8.002v-.004c0-.55.45-.998.998-.998H23c.55 0 1 .45 1 .998V8c0 .55-.45 1-.998 1zM23.002 15H7.998c-.55 0-.998-.45-.998-.998V14c0-.55.45-1 .998-1H23c.55 0 1 .45 1 .998V14c0 .55-.45 1-.998 1zM23.002 21H7.998c-.55 0-.998-.45-.998-.998V20c0-.55.45-1 .998-1H23c.55 0 1 .45 1 .998V20c0 .55-.45 1-.998 1z"/> </g>
</svg>